<svg width="22" height="22" viewBox="0 0 22 22" fill="none" xmlns="http://www.w3.org/2000/svg">
<path d="M11.0833 13.7503C12.6021 13.7503 13.8333 12.5191 13.8333 11.0003C13.8333 9.48154 12.6021 8.25033 11.0833 8.25033C9.56455 8.25033 8.33333 9.48154 8.33333 11.0003C8.33333 12.5191 9.56455 13.7503 11.0833 13.7503Z" stroke="white" stroke-width="1.5" stroke-linecap="round" stroke-linejoin="round"/>
<path d="M17.8667 13.7503C17.7446 14.0268 17.7082 14.3335 17.7622 14.6309C17.8161 14.9282 17.9578 15.2026 18.1692 15.4187L18.2242 15.4737C18.3946 15.6439 18.5298 15.8461 18.6221 16.0687C18.7144 16.2912 18.7619 16.5298 18.7619 16.7707C18.7619 17.0117 18.7144 17.2502 18.6221 17.4728C18.5298 17.6954 18.3946 17.8976 18.2242 18.0678C18.0539 18.2383 17.8517 18.3735 17.6291 18.4658C17.4066 18.558 17.168 18.6055 16.9271 18.6055C16.6862 18.6055 16.4476 18.558 16.225 18.4658C16.0025 18.3735 15.8003 18.2383 15.63 18.0678L15.575 18.0128C15.359 17.8015 15.0846 17.6597 14.7872 17.6058C14.4898 17.5519 14.1831 17.5883 13.9067 17.7103C13.6355 17.8265 13.4043 18.0195 13.2414 18.2654C13.0786 18.5113 12.9912 18.7995 12.99 19.0945V19.2503C12.99 19.7366 12.7968 20.2029 12.453 20.5467C12.1092 20.8905 11.6429 21.0837 11.1567 21.0837C10.6704 21.0837 10.2041 20.8905 9.86031 20.5467C9.51649 20.2029 9.32333 19.7366 9.32333 19.2503V19.1678C9.31624 18.8644 9.21803 18.5702 9.04147 18.3233C8.86491 18.0764 8.61817 17.8884 8.33333 17.7837C8.05685 17.6616 7.75016 17.6252 7.45279 17.6792C7.15543 17.7331 6.88104 17.8748 6.665 18.0862L6.61 18.1412C6.43973 18.3116 6.23754 18.4468 6.01497 18.5391C5.79241 18.6314 5.55385 18.6789 5.31292 18.6789C5.07199 18.6789 4.83342 18.6314 4.61086 18.5391C4.3883 18.4468 4.1861 18.3116 4.01583 18.1412C3.84538 17.9709 3.71015 17.7687 3.61789 17.5461C3.52563 17.3236 3.47814 17.085 3.47814 16.8441C3.47814 16.6031 3.52563 16.3646 3.61789 16.142C3.71015 15.9195 3.84538 15.7173 4.01583 15.547L4.07083 15.492C4.28216 15.276 4.42392 15.0016 4.47784 14.7042C4.53176 14.4068 4.49536 14.1001 4.37333 13.8237C4.25713 13.5525 4.06419 13.3213 3.81826 13.1584C3.57233 12.9956 3.28414 12.9082 2.98917 12.907H2.83333C2.3471 12.907 1.88079 12.7138 1.53697 12.37C1.19315 12.0262 1 11.5599 1 11.0737C1 10.5874 1.19315 10.1211 1.53697 9.7773C1.88079 9.43348 2.3471 9.24033 2.83333 9.24033H2.91583C3.21925 9.23323 3.5135 9.13502 3.76036 8.95846C4.00721 8.7819 4.19524 8.53517 4.3 8.25033C4.42202 7.97384 4.45842 7.66715 4.4045 7.36979C4.35059 7.07242 4.20883 6.79803 3.9975 6.58199L3.9425 6.52699C3.77204 6.35673 3.63682 6.15453 3.54456 5.93197C3.4523 5.7094 3.40481 5.47084 3.40481 5.22991C3.40481 4.98898 3.4523 4.75042 3.54456 4.52785C3.63682 4.30529 3.77204 4.10309 3.9425 3.93283C4.11277 3.76237 4.31496 3.62714 4.53753 3.53488C4.76009 3.44262 4.99866 3.39513 5.23958 3.39513C5.48051 3.39513 5.71908 3.44262 5.94164 3.53488C6.1642 3.62714 6.3664 3.76237 6.53667 3.93283L6.59167 3.98783C6.80771 4.19915 7.0821 4.34091 7.37946 4.39483C7.67682 4.44875 7.98352 4.41235 8.26 4.29033H8.33333C8.60446 4.17413 8.83568 3.98118 8.99855 3.73525C9.16142 3.48932 9.24882 3.20113 9.25 2.90616V2.75033C9.25 2.2641 9.44316 1.79778 9.78697 1.45396C10.1308 1.11015 10.5971 0.916992 11.0833 0.916992C11.5696 0.916992 12.0359 1.11015 12.3797 1.45396C12.7235 1.79778 12.9167 2.2641 12.9167 2.75033V2.83283C12.9178 3.1278 13.0052 3.41599 13.1681 3.66192C13.331 3.90785 13.5622 4.10079 13.8333 4.21699C14.1098 4.33901 14.4165 4.37541 14.7139 4.3215C15.0112 4.26758 15.2856 4.12582 15.5017 3.91449L15.5567 3.85949C15.7269 3.68904 15.9291 3.55381 16.1517 3.46155C16.3743 3.36929 16.6128 3.3218 16.8538 3.3218C17.0947 3.3218 17.3332 3.36929 17.5558 3.46155C17.7784 3.55381 17.9806 3.68904 18.1508 3.85949C18.3213 4.02976 18.4565 4.23196 18.5488 4.45452C18.641 4.67708 18.6885 4.91565 18.6885 5.15658C18.6885 5.3975 18.641 5.63607 18.5488 5.85863C18.4565 6.0812 18.3213 6.28339 18.1508 6.45366L18.0958 6.50866C17.8845 6.7247 17.7427 6.99909 17.6888 7.29645C17.6349 7.59382 17.6713 7.90051 17.7933 8.17699V8.25033C17.9095 8.52145 18.1025 8.75268 18.3484 8.91554C18.5943 9.07841 18.8825 9.16582 19.1775 9.16699H19.3333C19.8196 9.16699 20.2859 9.36015 20.6297 9.70396C20.9735 10.0478 21.1667 10.5141 21.1667 11.0003C21.1667 11.4866 20.9735 11.9529 20.6297 12.2967C20.2859 12.6405 19.8196 12.8337 19.3333 12.8337H19.2508C18.9559 12.8348 18.6677 12.9222 18.4217 13.0851C18.1758 13.248 17.9829 13.4792 17.8667 13.7503Z" stroke="white" stroke-width="1.5" stroke-linecap="round" stroke-linejoin="round"/>
</svg>
